<?xml version="1.0" encoding="utf-8"?>
<!-- Generator: Adobe Illustrator 16.0.0, SVG Export Plug-In . SVG Version: 6.00 Build 0)  -->
<!DOCTYPE svg PUBLIC "-//W3C//DTD SVG 1.1//EN" "http://www.w3.org/Graphics/SVG/1.1/DTD/svg11.dtd">
<svg version="1.1" id="Layer_1" xmlns="http://www.w3.org/2000/svg" xmlns:xlink="http://www.w3.org/1999/xlink" x="0px" y="0px"
	 width="650px" height="650px" viewBox="0 0 650 650" enable-background="new 0 0 650 650" xml:space="preserve">
<path fill-rule="evenodd" clip-rule="evenodd" fill="#CC6698" d="M449.504,284.586c-1.561-6.873-5.562-13.266-8.682-19.783
	c-0.497-1.039-0.677-1.904-0.509-2.71c-0.25-0.406-0.502-0.812-0.758-1.213c-2.88-4.508-6.057-9.202-6.936-14.495
	c-0.022-0.057-0.045-0.114-0.067-0.171c-4.75-12.646-8.455-25.494-9.233-39.017c-0.302-5.229-1.715-5.875-6.924-4.087
	c-0.972,0.334-1.988,1.162-2.487,2.022c-1.603,2.764-3.182,5.571-4.4,8.5c-4.742,11.395-10.567,22.194-18.563,31.871
	c-1.218,1.475-2.394,2.986-3.649,4.615c0.188,1.499,0.403,2.993,0.752,4.456c0.707,2.964,2.052,5.597,3.305,8.375
	c0.37,0.819,0.716,1.646,1.054,2.478c0.034-0.036,0.062-0.071,0.097-0.108c5.123-5.368,11.213-9.979,14.563-16.772
	c1.076-2.182,2.608-4.162,3.642-5.782c3.904,6.586,7.712,12.934,11.398,19.324c3.826,3.623,7.093,8.155,9.222,13.028
	c0.071,0.033,0.137,0.071,0.209,0.103c3.333,1.484,5.156,4.891,5.535,8.456c2.281,3.468,4.09,7.15,5.227,10.698
	c2.037,6.362,1.169,13.51-2.172,18.597c0.661-0.359,1.266-0.771,1.777-1.258C449.813,304.181,451.74,294.431,449.504,284.586z"/>
<path fill-rule="evenodd" clip-rule="evenodd" fill="#CC6698" d="M588.887,269.892c-0.69-3.966-1.257-7.961-2.183-11.878
	c-0.869-3.677-1.634-7.495-3.312-10.859c-6.758-13.547-19.443-21.395-32.404-28.475c-6.008-3.283-13.192-4.845-20.036-6.432
	c-3.984-0.923-8.356-0.506-12.546-0.394c-2.71,0.071-5.452,1.183-8.097,0.956c-7.253-0.62-14.095,1.275-20.15,4.243
	c-12.409,6.084-23.801,13.814-33.544,23.455c-5.297,5.242-10.253,10.797-15.292,16.272c-0.515,0.559-0.951,1.184-1.366,1.826
	c1.238,3.754,3.751,7.218,5.862,10.553c1.395-1.43,2.719-2.931,4.224-4.247c5.124-4.481,10.55-8.665,15.49-13.32
	c10.655-10.043,24.102-15.635,37.788-19.985c14.691-4.671,29.943-3.141,44.709,1.413c0.539,0.166,1.041,0.447,1.541,0.708
	c4.312,2.254,8.748,4.326,12.886,6.84c2.939,1.785,6.436,3.663,8.018,6.377c4.915,8.432,9.005,17.297,13.504,25.952
	c0.541,1.04,1.624,1.825,2.456,2.729c0.894-1.048,1.983-2.005,2.606-3.183C589.391,271.784,589.036,270.744,588.887,269.892z"/>
<path fill-rule="evenodd" clip-rule="evenodd" fill="#CC6698" d="M366.966,247.097c0.728,1.729,1.363,3.092,1.882,4.492
	c1.534,4.137,2.979,8.305,4.534,12.435c4.357-1.867,10.135-1.137,13.149,2.326c1.181,1.357,2.314,2.881,3.438,4.467
	c-0.989-2.366-1.604-4.736-2.076-7.157c-0.105,0.136-0.207,0.267-0.314,0.405c-0.625-1.922-1.016-2.909-1.264-3.93
	c-1.027-4.232-2.091-8.458-2.996-12.715c-2.245-10.567-5.996-20.896-5.498-31.912c0.061-1.321-0.73-3.615-1.569-3.82
	c-1.339-0.328-3.278,0.408-4.554,1.254c-2.232,1.481-4.041,3.531-6.232,5.079c-3.314,2.339-7.448,4.01-6.24,9.16
	c0.175,0.749-0.348,1.699-0.696,2.499c-2.179,5.017-4.2,10.107-6.646,15.006c-6.088,12.188-12.03,24.463-18.717,36.354
	c-3.914,6.96-8.632,13.656-13.932,19.726c-5.063,5.798-14.085,4.581-17.831-2.049c-1.66-2.938-2.678-6.674-2.52-9.986
	c0.48-10.089,1.249-20.204,2.71-30.202c1.416-9.681,3.882-19.221,5.775-28.842c0.794-4.039-0.148-5.46-4.108-7.316
	c-0.57-0.268-0.954-0.88-1.513-1.181c-1.383-0.745-2.865-2.072-4.225-1.986c-8.958,0.565-17.948-0.901-26.92,1.416
	c-8.92,2.304-18.249,3.151-27.235,5.265c-15.293,3.599-30.596,7.268-45.631,11.716c-10.658,3.153-20.945,7.492-31.273,11.588
	c-5.367,2.13-10.51,4.795-15.668,7.375c-4.442,2.222-8.666,4.846-13.152,6.977c-11.914,5.657-21.968,13.421-28.877,24.25
	c-4.604,7.218-8.422,14.931-12.087,22.639c-6.295,13.241-9.719,26.778-2.571,40.867c0.683,1.346,0.961,2.878,1.428,4.324
	c0.437,0.119,0.873,0.238,1.31,0.358c1.915-2.249,3.81-4.512,5.746-6.742c4.466-5.142,10.402-9.786,11.742-16.401
	c1.917-9.464,5.933-18.012,10.02-26.599c4.897-10.288,10.969-19.84,20.409-27.085c10.778-8.275,22.886-14.561,34.725-21.262
	c1.956-1.108,3.423-3.017,5.406-4.057c2.774-1.456,5.767-2.582,8.76-3.604c9.576-3.271,19.083-6.783,28.83-9.517
	c7.837-2.199,15.997-3.344,23.986-5.068c5.646-1.219,11.249-2.624,16.87-3.946c0.135,0.349,0.271,0.699,0.408,1.047
	c-0.996,0.862-1.932,1.796-2.998,2.571c-2.906,2.116-5.99,4.026-8.784,6.266c-8.564,6.867-15.63,14.929-21.166,24.228
	c-6.321,10.62-11.267,21.721-12.39,33.97c-0.312,3.402-0.016,7.704,1.927,10.277c5.138,6.806,13.069,9.458,21.681,8.855
	c12.915-0.905,22.535-8.011,30.785-16.755c4.232-4.484,7.566-9.736,11.616-15.047c0.301,3.181,0.667,5.92,0.8,8.67
	c0.48,9.979,7.575,21.658,20.577,21.77c0.665,0.005,1.37,0.229,1.982,0.501c7.667,3.397,14.26,0.634,20.851-3.021
	c5.976-3.314,8.224-9.279,11.337-14.426c5.62-9.291,10.524-18.99,15.401-28.667C359.406,263.923,362.973,255.697,366.966,247.097z
	 M289.322,244.979c-1.275,10.942-5.792,20.618-12.479,29.499c-3.975,5.279-7.395,10.99-11.809,15.902
	c-3.206,3.569-7.505,6.312-11.551,9.119c-3.393,2.354-11.041,1.642-13.876-1.158c-0.829-0.818-1.269-2.321-1.271-3.512
	c-0.026-8.394,2.694-15.837,7.814-22.798c6.859-9.324,15.282-17.201,23.484-25.36c5.252-5.223,11.448-8.896,17.761-12.576
	c0.728-0.424,1.665-0.524,3.503-1.072C290.302,237.517,289.758,241.242,289.322,244.979z"/>
<path fill-rule="evenodd" clip-rule="evenodd" fill="#CC6698" d="M114.085,158.409c-0.032-10.738,1.991-21.143,6.048-31.035
	c2.599-6.338,5.934-12.543,9.897-18.201c5.479-7.82,11.545-15.323,17.971-22.464c3.822-4.246,8.68-7.7,13.322-11.212
	c5.356-4.054,10.895-7.907,16.519-11.621c9.085-5.998,18.087-12.159,27.552-17.575c6.112-3.499,12.871-6.075,19.549-8.557
	c8.907-3.312,17.964-6.286,27.057-9.113c7.05-2.192,14.211-4.096,21.402-5.832c6.29-1.517,12.681-2.663,19.046-3.883
	c1.783-0.342,3.627-0.422,5.45-0.531c10.027-0.604,20.05-1.511,30.084-1.629c5.432-0.064,10.896,1.162,16.323,1.937
	c10.501,1.499,21.087,2.65,31.441,4.8c6.76,1.402,13.193,4.266,19.736,6.566c2.46,0.865,4.954,1.772,7.2,3.033
	c9.795,5.498,19.922,10.579,29.14,16.859c11.461,7.811,20.469,18.17,27.03,29.998c6.982,12.587,10.319,26.148,6.419,40.397
	c-2.298,8.397-6.724,15.848-12.517,22.643c-8.375,9.822-19.918,14.971-31.439,20.332c-10.031,4.668-20.496,5.823-31.411,4.533
	c-3.245-0.383-6.045-1.394-7.077-4.762c-0.78-2.546,0.267-4.546,2.681-4.393c7.3,0.466,13.572-2.904,20.083-4.981
	c6.678-2.131,12.974-5.459,19.233-8.629c7.28-3.688,11.806-9.853,16.084-16.429c3.462-5.318,5.462-10.953,5.442-16.902
	c-0.024-7.105-0.749-14.32-2.294-21.261c-0.771-3.454-3.708-6.679-6.251-9.536c-18.034-20.263-41.746-30.343-68.723-34.991
	c-19.219-3.312-38.236-2.799-57.281,0.587c-24.25,4.311-47.946,10.524-70.927,19.108c-2.335,0.872-4.529,2.098-6.765,3.202
	c-8.215,4.058-16.453,8.08-24.623,12.219c-11.66,5.906-22.699,12.758-32.437,21.253c-7.994,6.975-15.619,14.351-23.137,21.796
	c-5.818,5.765-8.497,13.101-9.922,20.836c-0.829,4.499-1.341,9.05-2.013,13.575c-1.057,7.117,1.042,13.816,2.941,20.552
	c4.356,15.449,12.343,29.199,21.826,42.244c3.307,4.548,6.756,9.001,10.124,13.509c1.177,1.575,1.825,3.212-0.46,4.397
	c-3.765,1.953-7.559,3.863-11.406,5.661c-2.344,1.096-4.61,1.801-5.311-1.918c-0.218-1.161-1.476-2.158-2.299-3.201
	c-7.545-9.562-15.605-18.8-22.525-28.755c-8.403-12.09-15.478-24.994-19.577-39.059C114.037,167.68,114.44,162.944,114.085,158.409z
	"/>
<path fill-rule="evenodd" clip-rule="evenodd" fill="#CC6698" d="M256.453,478.309c-1.619-0.744-3.297-1.275-4.832-1.133
	c-3.723,0.343-7.545,1.831-10.868,3.604c-12.074,6.442-24.09,13.003-35.859,19.931c-6.283,3.698-12.045,8.201-17.959,12.446
	c-0.781,0.561-1.067,1.743-1.582,2.638c1.262,0.625,2.514,1.737,3.79,1.763c1.879,0.037,3.928-0.391,5.635-1.161
	c8.462-3.818,16.834-7.822,25.248-11.739c1.557-0.725,3.164-1.353,5.282-2.252c-0.361,1.356-0.495,1.984-0.696,2.591
	c-4.966,14.967-13.18,28.518-21.315,41.97c-5.846,9.664-13.765,18.034-22.588,25.694c-12.065,10.474-25.306,9.656-36.805,2.312
	c-13.972-8.923-25.353-20.153-27.504-37.508c-1.228-9.908-3.991-19.635-5.683-29.502c-0.935-5.452-1.1-11.024-1.581-16.544
	c-0.497-5.687-1.071-11.371-1.396-17.067c-0.315-5.524-0.215-11.07-0.565-16.59c-0.273-4.313-1.333-8.598-1.393-12.903
	c-0.209-15.091,2.214-29.902,5.538-44.63c3.064-13.58,9.634-25.848,16.422-37.813c6.878-12.126,17.663-21.135,31.275-26.634
	c0.37-0.149,0.754-0.458,0.947-0.79c4.029-6.937,8.111-13.85,11.922-20.894c0.41-0.758-0.457-3.02-1.29-3.366
	c-5.935-2.461-11.739-4.597-18.55-1.619c-7.883,3.448-15.48,7.208-21.418,13.214c-10.374,10.49-19.032,22.165-25.905,35.073
	c-7.178,13.481-14.443,26.891-18.651,41.563c-2.914,10.168-6.248,20.199-6.936,30.879c-0.486,7.545-2.521,14.994-3.151,22.538
	c-1.117,13.342-0.676,26.715,1.604,39.932c2.48,14.381,5.299,28.715,8.264,43.014c1.965,9.472,4.604,18.796,9.487,27.385
	c1.9,3.343,3.632,6.788,5.756,9.998c2.766,4.177,5.97,8.09,8.762,12.253c4.844,7.22,10.729,13.417,19.366,16.356
	c4.804,1.634,9.957,2.828,15.028,3.151c7.658,0.489,15.6,2.141,22.914-1.728c5.952-3.147,12.208-5.961,17.595-9.844
	c7.15-5.153,14.23-10.661,20.152-17.017c5.93-6.364,10.797-13.735,15.412-21.072c6.152-9.784,11.603-19.966,17.377-29.965
	c0.975-1.688,2.064-3.316,3.101-4.972c0.443,0.083,0.886,0.164,1.329,0.246c0,3.78,0.075,7.563-0.015,11.342
	c-0.214,9.067-1.347,17.992-4.53,26.617c-3.365,9.113-6.108,18.471-10.1,27.325c-2.528,5.607-6.543,10.698-10.416,15.651
	c-7.38,9.44-15.633,18.133-26.128,24.642c-2.194,1.363-4.42,2.758-6.319,4.453c-2.116,1.89-1.546,3.202,1.071,4.251
	c4.282,1.717,7.386-0.643,10.341-2.736c6.48-4.595,12.707-9.513,19.079-14.246c13.637-10.133,23.434-23.084,30.701-37.867
	c1.787-3.635,2.958-7.552,4.87-11.118c4.13-7.709,5.551-16.079,6.789-24.448c1.11-7.518,1.804-15.114,2.202-22.699
	c0.649-12.362,0.956-24.742,1.269-37.118c0.015-0.602-0.047-1.333-0.192-2.024C259.02,481.232,257.513,479.937,256.453,478.309z"/>
<path fill-rule="evenodd" clip-rule="evenodd" fill="#CC6698" d="M448.179,476.284c-1.71-6.385-4.414-12.527-6.793-18.754
	c-1.208-1.89-2.25-3.844-3.171-5.848c-3.187-4.292-5.828-8.954-5.791-13.897c0-0.091,0.017-0.175,0.029-0.258
	c-0.236-0.558-0.437-1.118-0.655-1.676c-1.184-0.608-1.463-1.927-1.09-3.018c-2.456-7.417-3.363-14.96-2.779-22.795
	c0.114-1.532-0.312-3.1-0.488-4.652c-1.457,0.628-3.196,0.96-4.319,1.936c-4.39,3.813-10.381,6.362-10.928,13.257
	c-0.225,2.845-1.463,5.708-2.69,8.375c-7.48,16.263-17.47,31.098-29.328,44.735c-8.341,9.592-17.14,18.834-25.972,28.025
	c-6.242,6.497-12.958,12.58-19.28,19.008c-1.172,1.191-2.104,3.165-2.071,4.757c0.117,5.867,0.689,11.727,1.085,17.588
	c0.909,13.45,1.269,26.954,4.566,40.161c1.556,6.236,3.293,12.452,4.432,18.761c1.568,8.689,4.459,16.529,11.575,22.697
	c6.709,5.817,13.003,5.369,18.452,0.623c7.552-6.574,12.906-14.878,15.627-24.443c2.904-10.207,4.382-20.559,4.461-31.196
	c0.083-11.61-2.406-22.682-5.781-33.682c-3.469-11.307-11.177-20.091-19.039-28.761c-1.426-1.573-1.477-2.541,0.15-4.053
	c17.648-16.422,31.723-35.282,42.312-56.497c1.218-2.438,2.527-4.834,4.3-8.217c0.767,1.596,1.478,3.076,2.157,4.49
	c0.965-0.209,1.992,0.094,2.491,1.187c2.035,4.457,4.01,8.967,5.798,13.545c1.259,2.128,2.351,4.333,3.186,6.614
	c3.599,7.267,10.014,25.169,2.308,30.131c-0.371,0.401-0.91,0.667-1.654,0.776c-0.433,0.146-0.886,0.271-1.382,0.356
	c-0.752,0.128-1.398-0.055-1.908-0.406c-6.279-0.645-9.102-4.208-6.419-10.776c1.632-3.995,3.337-7.964,5.05-11.931
	c-1.295-3.597-2.78-7.118-4.464-10.571c-0.229-0.469-0.446-0.955-0.659-1.445c-2.078,2.779-3.699,5.881-5.406,8.899
	c-5.717,10.098-6.099,20.969-3.511,31.706c0.905,3.752,4.547,7.723,8.09,9.9c5.523,3.395,11.961,1.274,18.078,0.521
	c1.137-0.802,2.264-1.622,3.403-2.417c1.758-2.202,3.595-4.378,4.715-6.846c1.771-3.903,3.145-8.133,3.675-12.338
	C449.103,485.386,449.329,480.576,448.179,476.284z M368.775,571.133c-0.106,6.566-1.671,13.114-2.64,19.663
	c-0.105,0.703-0.563,1.36-0.91,2.162c-5.414-1.878-7.365-6.201-8.004-10.704c-2.521-17.779-3.15-35.675-2.648-53.607
	c0.008-0.28,0.216-0.557,0.589-1.459c0.922,1.565,1.637,2.703,2.277,3.877c2.523,4.626,4.889,9.336,7.562,13.883
	C369.87,553.226,368.917,562.307,368.775,571.133z"/>
<path fill-rule="evenodd" clip-rule="evenodd" fill="#CC6698" d="M396.343,345.54c-2.285-2.537-5.19-4.569-8.188-7.154
	c-0.21,0.076-1.482,1.025-2.398,0.78c-7.598-2.036-13.809,1.22-19.436,5.068c-8.724,5.967-15.962,13.385-19.883,23.168
	c-4.43,11.056-9.067,22.056-12.889,33.303c-2.452,7.215-3.631,14.823-5.313,22.27c-2.363,10.461-3.356,21.064-3.225,31.746
	c0.129,10.557,0.469,21.112,0.754,31.667c0.078,2.932,0.287,5.861,0.437,8.791c0.393,0.171,0.785,0.343,1.178,0.514
	c2.969-2.368,6.463-4.351,8.769-7.204c2.679-3.316,4.174-7.474,6.443-11.122c2.668-4.287,4.059-8.615,2.001-13.5
	c-0.236-0.562-0.082-1.296-0.026-1.943c0.776-9.044,0.687-18.062,2.422-27.149c2.327-12.185,2.975-24.677,7.967-36.3
	c2.497-5.814,5.451-11.465,8.475-17.054c1.805-3.335,5.52-3.892,8.408-1.627c3.532,2.77,5.433,6.474,5.287,10.708
	c-0.226,6.589-0.729,13.193-1.586,19.736c-1.987,15.185-5.402,30.072-12.631,43.869c-4.59,8.76-9.993,17.134-14.604,25.884
	c-7.59,14.4-18.001,26.401-31.918,35.62c-2.858,1.892-5.989,3.14-9.35,1.812c-6.263-2.475-11.537-5.92-11.717-13.337
	c-0.095-3.893-0.83-7.855-0.301-11.664c1.648-11.848,3.591-23.667,5.781-35.437c0.866-4.658,2.837-9.12,4.013-13.739
	c0.67-2.632-0.694-3.823-3.433-2.993c-1.724,0.522-3.172,1.862-4.748,2.829c-3.675,2.255-7.339,4.502-10.898,6.685
	c-0.257,1.121-0.707,2.203-1.405,3.189c-0.594,0.816-1.154,1.647-1.693,2.488c-0.03,0.076-0.063,0.152-0.094,0.228
	c-0.061,1.599-0.383,3.025-0.931,4.263c-0.852,4.369-2.128,8.672-3.368,12.966c-0.26,2.141-0.481,4.284-0.62,6.432
	c-0.643,9.942-1.089,19.951-0.61,29.886c0.423,8.787,9.33,19.197,21.65,18.889c6.994-0.175,13.004-2.604,19.003-4.999
	c5.364-2.142,10.342-5.453,14.981-8.874c5.399-3.98,10.339-8.547,15.299-13.038c3.638-3.294,7.429-6.569,10.368-10.397
	c5.443-7.09,10.431-14.508,15.379-21.929c3.178-4.766,6.836-9.488,8.726-14.736c5.549-15.409,11.351-30.852,15.084-46.702
	c3.176-13.481,4.077-27.516,5.086-41.365C403.118,358.829,401.639,351.418,396.343,345.54z"/>
<path fill-rule="evenodd" clip-rule="evenodd" fill="#CC6698" d="M203.086,387.675c-1.717-13.81-5.224-25.996-14.698-36.23
	c-1.893-2.046-3.51-5.398-1.352-9.081c3.052-5.209,5.492-10.764,7.898-16.286c1.101-2.526,2.275-2.293,4.431-1.295
	c8.932,4.137,15.377,10.988,19.64,18.997c4.949,9.298,9.449,19.107,7.931,30.201c-0.327,2.396,0.617,4.929,0.781,7.411
	c0.518,7.895-2.461,15.262-4.81,22.523c-2.389,7.389-6.235,14.479-10.345,21.2c-3.648,5.967-8.435,11.321-12.888,16.821
	c-7.548,9.323-17.723,15.717-27.574,22.568c-9.633,6.7-20.232,11.438-31.293,15.145c-8.676,2.908-17.937,3.745-27.19,2.742
	c-0.92-0.101-2.339-1.741-2.368-2.698c-0.253-8.446-0.23-16.899-0.324-25.351c-0.034-3.179,1.616-4.65,3.952-3.164
	c7.281,4.633,15.076,4.212,23.13,2.719c12.26-2.273,22.775-7.448,31.694-15.872c3.928-3.71,9.054-6.272,12.994-9.974
	c9.43-8.861,16.591-19.146,19.325-31.739C202.682,393.262,202.799,390.102,203.086,387.675z"/>
<path fill-rule="evenodd" clip-rule="evenodd" fill="#CC6698" d="M75.023,432.284c-3.918,7.092-4.009,15.239-5.147,23.136
	c-0.661,4.596-0.584,9.286-0.948,13.925c-0.057,0.729-0.751,2.031-1.055,2.007c-0.917-0.073-2.068-0.452-2.631-1.101
	c-3.763-4.348-7.374-8.812-11.08-13.206c-3.781-4.482-7.843-8.77-11.352-13.434c-2.914-3.87-5.299-8.114-7.752-12.28
	c-7.829-13.299-14.811-27.025-18.872-41.788c-1.976-7.185-2.15-14.826-3.021-22.273c-0.34-2.912-0.75-5.896-0.441-8.782
	c0.865-8.088,2.087-16.143,3.169-24.209c1.881-14.006,7.489-26.813,14.026-39.313c2.941-5.624,5.373-11.608,9.123-16.705
	c7.424-10.093,14.81-20.396,26.4-26.857c2.652-1.479,5.217-3.15,8.014-4.318c1.309-0.546,3.073-0.104,4.631-0.111
	c-0.19,1.736,0.224,3.866-0.687,5.132c-2.25,3.124-5.174,5.802-7.707,8.752c-5.223,6.082-10.172,12.387-15.596,18.299
	c-6.624,7.217-9.653,15.966-12.366,24.837c-4.42,14.441-7.352,29.23-6.56,44.271c0.662,12.533,2.667,24.952,7.164,36.993
	c3.198,8.563,6.777,16.821,12.285,24.21c3.154,4.233,6.786,8.155,10.333,12.111C68.197,425.198,71.615,428.674,75.023,432.284z"/>
<path fill-rule="evenodd" clip-rule="evenodd" fill="#CC6698" d="M123.748,383.572c0-1.596-0.508-3.379,0.085-4.722
	c3.04-6.878,5.433-13.94,9.605-20.484c2.462-3.861,5.152-4.08,8.615-4.964c11.399-2.91,19.973-9.196,25.001-19.576
	c2.095-4.327,4.661-8.456,6.624-12.832c4.786-10.665,7.169-21.727,5.507-33.4c-0.598-4.198-0.78-8.448-1.273-12.662
	c-0.231-1.976,0.46-4.553-2.85-4.987c0.225-1.207,0.024-3.089,0.749-3.501c3.026-1.722,6.28-3.12,9.555-4.397
	c1.709-0.667,5.609,1.929,6.216,3.99c2.794,9.501,3.979,19.154,2.882,29.01c-0.936,8.414-1.336,16.919-2.948,25.211
	c-1.125,5.796-3.618,11.413-6.02,16.904c-2.006,4.589-4.224,9.267-7.32,13.215c-4.461,5.687-9.313,11.282-14.908,15.925
	c-5.439,4.516-12.033,7.77-18.104,11.604c-4.773,3.014-10.088,3.561-15.653,3.515C127.944,381.408,126.368,382.551,123.748,383.572z
	"/>
<path fill-rule="evenodd" clip-rule="evenodd" fill="#CC6698" d="M306.564,411.36c1.301,9.181-5.859,14.029-11.361,19.455
	c-3.388,3.34-12.326,1.381-14.42-2.691c-0.489-0.951-0.33-2.38-0.036-3.483c1.01-3.77,2.209-7.495,3.344-11.233
	c2.319-7.635,8.778-10.624,15.967-12.623c2.204-0.613,5.338,1.811,5.93,4.449C306.435,407.224,306.39,409.314,306.564,411.36z"/>
<path fill-rule="evenodd" clip-rule="evenodd" fill="#CC6698" d="M397.266,31.104c-8.438-5.171-18.89-5.256-28.493-6.365
	c-9.099-1.05-18.212-1.967-27.322-2.907c-3.562-1.977-7.72-3.064-11.792-4.002c-7.574-1.744-15.428-2.391-23.159-3.006
	c-12.057-0.959-24.373-0.106-36.335,1.499c-24.395,3.273-47.856,10.636-69.775,21.852c-20.506,10.493-39.491,24.83-54.38,42.451
	c-14.373,17.01-26.377,37.706-29.3,60.066c-1.15,8.8-0.634,16.944,0.944,25.624c0.483,2.659,3.967,2.95,5.54,1.253
	c0.028,1.915,0.126,3.828,0.284,5.736c0.573,6.913,1.261,12.662,7.033,17.068c3.454,2.637,9.607,0.736,11.448-3.001
	c2.465-5.005,1.207-8.85,0.621-14.067c-0.476-4.233-0.393-8.512-0.078-12.752c0.632-8.521,3.566-16.882,6.597-24.803
	c3.145-8.218,7.458-15.94,11.546-23.71c3.822-7.262,8.236-16.599,8.574-24.891c0.051-1.241-0.513-2.372-1.382-3.194
	c8.413-8.044,17.738-15.174,27.434-21.32c19.751-12.521,41.759-20.9,64.627-25.596c11.434-2.348,23.057-3.44,34.722-3.6
	c13.959-0.191,26.937,1.999,40.406,5.374c2.898,0.726,5.808,0.585,8.685-0.005c7.091,0.912,14.183,1.821,21.265,2.798
	c10.136,1.398,20.435,4.292,30.62,2.292C401.805,42.679,402.103,34.068,397.266,31.104z"/>
<path fill-rule="evenodd" clip-rule="evenodd" fill="#CC6698" d="M444.024,462.123c-1.812-5.192-4.049-10.232-6.327-15.233
	c-2.293-5.035-4.603-10.061-7.443-14.809c-1.308-2.186-6.627-7.52-9.397-4.059c-0.949,1.186-1.472,2.513-1.683,3.927
	c-1.777,0.667-3.196,2.354-2.924,4.674c-0.018,0.042-0.026,0.089-0.043,0.131c-0.088-0.036-0.177-0.077-0.265-0.109
	c-0.449-0.163-1.038,0.268-0.989,0.753c0.357,3.544,2.555,7.663,4.087,10.838c2.245,4.655,4.409,9.305,6.343,14.102
	c0.65,1.613,1.902,6.24,3.691,10.403c0.268,0.773,0.535,1.545,0.798,2.319c1.101,3.835,1.66,7.781,1.713,11.823
	c0.03,2.288-0.249,4.854-1.938,6.535c-1.934,1.925-5.434,0.707-7.566,3.076c-0.982,1.091-1.404,2.808-0.531,4.118
	c3.566,5.354,9.158,3.777,13.243,0.102c1.709,0.955,4.025,0.815,5.839-0.67c3.672-3.007,3.841-9.562,3.667-13.927
	c-0.074-1.851-0.302-3.678-0.637-5.484c1.29-0.626,2.375-1.775,2.946-3.325C448.407,472.424,445.653,466.791,444.024,462.123z"/>
<path fill-rule="evenodd" clip-rule="evenodd" fill="#CC6698" d="M424.174,504.881c-0.85-2.39-2.149-3.039-4.005-4.556
	c-1.926-1.575-2.639-4.041-3.186-6.356c-1.06-4.492-1.015-10.974,0.494-15.356c0.202-0.586,0.214-1.138,0.111-1.651
	c0.118-0.499,0.233-0.999,0.339-1.5c0.76-3.608-3.791-5.074-5.533-2.333c-0.016-0.007-0.032-0.014-0.048-0.021
	c-0.289,0.6-0.567,1.199-0.84,1.799c-0.251,0.25-0.479,0.542-0.652,0.914c-1.526,3.266-2.461,6.473-2.704,10.079
	c-0.042,0.627,0.047,1.172,0.231,1.64c-0.328,2.802-0.386,5.658,0.051,8.788c0.747,5.355,6.139,16.078,13.068,13.264
	C423.317,508.852,424.933,507.014,424.174,504.881z"/>
<g>
	<path fill-rule="evenodd" clip-rule="evenodd" fill="#CC6698" d="M395.913,286.618c-1.71-6.385-4.414-12.527-6.793-18.754
		c-1.208-1.89-2.25-3.844-3.171-5.848c-3.187-4.292-5.828-8.954-5.791-13.897c0-0.091,0.017-0.175,0.029-0.258
		c-0.236-0.558-0.437-1.118-0.655-1.676c-1.184-0.608-1.463-1.927-1.09-3.018c-2.456-7.417-3.363-14.96-2.779-22.795
		c0.114-1.532-0.312-3.1-0.488-4.652c-1.457,0.628-3.196,0.96-4.319,1.936c-4.39,3.813-10.381,6.362-10.928,13.257
		c-0.225,2.845-1.463,5.708-2.69,8.375c-4.975,10.816-11.066,20.997-18.072,30.618c-0.067,1.355-0.131,2.71-0.191,4.065
		c0.032,4.706,0.084,9.412,0.152,14.118c7.375-9.721,13.811-20.081,19.3-31.079c1.218-2.438,2.527-4.834,4.3-8.217
		c0.767,1.596,1.478,3.076,2.157,4.49c0.965-0.209,1.992,0.094,2.491,1.187c2.035,4.457,4.01,8.967,5.798,13.545
		c1.259,2.128,2.351,4.333,3.186,6.614c3.599,7.267,10.014,25.169,2.308,30.131c-0.371,0.401-0.91,0.667-1.654,0.776
		c-0.433,0.146-0.886,0.271-1.382,0.356c-0.752,0.128-1.398-0.055-1.908-0.406c-6.279-0.645-9.102-4.208-6.419-10.776
		c1.632-3.995,3.337-7.964,5.05-11.931c-1.295-3.597-2.78-7.118-4.464-10.571c-0.229-0.469-0.446-0.955-0.659-1.445
		c-2.078,2.779-3.699,5.881-5.406,8.899c-5.717,10.098-6.099,20.969-3.511,31.706c0.905,3.752,4.547,7.723,8.09,9.9
		c5.523,3.395,11.961,1.274,18.078,0.521c1.137-0.802,2.264-1.622,3.403-2.417c1.758-2.202,3.595-4.378,4.715-6.846
		c1.771-3.903,3.145-8.133,3.675-12.338C396.836,295.72,397.062,290.91,395.913,286.618z"/>
	<path fill-rule="evenodd" clip-rule="evenodd" fill="#CC6698" d="M391.757,272.457c-1.812-5.192-4.049-10.232-6.327-15.233
		c-2.293-5.035-4.603-10.061-7.443-14.809c-1.308-2.186-6.627-7.52-9.397-4.059c-0.949,1.186-1.472,2.513-1.683,3.927
		c-1.777,0.667-3.196,2.354-2.924,4.674c-0.018,0.042-0.026,0.089-0.043,0.131c-0.088-0.036-0.177-0.077-0.265-0.109
		c-0.449-0.163-1.038,0.268-0.989,0.753c0.357,3.544,2.555,7.663,4.087,10.838c2.245,4.655,4.409,9.305,6.343,14.102
		c0.65,1.613,1.902,6.24,3.691,10.403c0.268,0.773,0.535,1.545,0.798,2.319c1.101,3.835,1.66,7.781,1.713,11.823
		c0.03,2.288-0.249,4.854-1.938,6.535c-1.934,1.925-5.434,0.707-7.566,3.076c-0.982,1.091-1.404,2.808-0.531,4.118
		c3.566,5.354,9.158,3.777,13.243,0.102c1.709,0.955,4.025,0.815,5.839-0.67c3.672-3.007,3.841-9.562,3.667-13.927
		c-0.074-1.851-0.302-3.678-0.637-5.484c1.29-0.626,2.375-1.775,2.946-3.325C396.14,282.758,393.386,277.125,391.757,272.457z"/>
	<path fill-rule="evenodd" clip-rule="evenodd" fill="#CC6698" d="M371.908,315.215c-0.85-2.39-2.149-3.039-4.005-4.556
		c-1.926-1.575-2.639-4.041-3.186-6.356c-1.06-4.492-1.015-10.974,0.494-15.356c0.202-0.586,0.214-1.138,0.111-1.651
		c0.118-0.499,0.233-0.999,0.339-1.5c0.76-3.608-3.791-5.074-5.533-2.333c-0.016-0.007-0.032-0.014-0.048-0.021
		c-0.289,0.6-0.567,1.199-0.84,1.799c-0.251,0.25-0.479,0.542-0.652,0.914c-1.526,3.266-2.461,6.473-2.704,10.079
		c-0.042,0.627,0.047,1.172,0.231,1.64c-0.328,2.802-0.386,5.658,0.051,8.788c0.747,5.355,6.139,16.078,13.068,13.264
		C371.051,319.186,372.666,317.348,371.908,315.215z"/>
</g>
<g>
	<path fill-rule="evenodd" clip-rule="evenodd" fill="#CC6698" d="M445.12,273.197c-1.208-1.89-2.25-3.844-3.171-5.848
		c-2.481-3.342-4.625-6.908-5.438-10.656c-4.302-7.046-8.42-14.244-13.576-20.747c-1.039-1.311-1.857-2.739-2.42-4.219
		c-0.116,7.694-0.48,15.367-1.517,22.962c0.662,1.378,1.29,2.686,1.887,3.928c0.965-0.209,1.992,0.094,2.491,1.187
		c2.035,4.457,4.01,8.967,5.798,13.545c1.259,2.128,2.351,4.333,3.186,6.614c3.599,7.267,10.014,25.169,2.308,30.131
		c-0.371,0.401-0.91,0.667-1.654,0.776c-0.433,0.146-0.886,0.271-1.382,0.356c-0.752,0.128-1.398-0.055-1.908-0.406
		c-6.279-0.645-9.102-4.208-6.419-10.776c1.632-3.995,3.337-7.964,5.05-11.931c-1.295-3.597-2.78-7.118-4.464-10.571
		c-0.229-0.469-0.446-0.955-0.659-1.445c-2.078,2.779-3.699,5.881-5.406,8.899c-5.717,10.098-6.099,20.969-3.511,31.706
		c0.905,3.752,4.547,7.723,8.09,9.9c5.523,3.395,11.961,1.274,18.078,0.521c1.137-0.802,2.264-1.622,3.403-2.417
		c1.758-2.202,3.595-4.378,4.715-6.846c1.771-3.903,3.145-8.133,3.675-12.338c0.562-4.469,0.788-9.278-0.362-13.57
		C450.203,285.566,447.499,279.424,445.12,273.197z"/>
	<path fill-rule="evenodd" clip-rule="evenodd" fill="#CC6698" d="M443.709,267.662c-5.797-7.95-10.411-16.756-15.913-24.982
		c-1.186-0.295-2.325-0.093-3.207,1.009c-0.949,1.186-1.472,2.513-1.683,3.927c-0.875,0.328-1.66,0.906-2.202,1.683
		c-0.036,0.058-0.071,0.116-0.106,0.173c-0.486,0.773-0.745,1.722-0.616,2.818c-0.018,0.042-0.026,0.089-0.043,0.131
		c-0.088-0.036-0.177-0.077-0.265-0.109c-0.118-0.043-0.246-0.042-0.369-0.013c-0.098,0.821-0.205,1.641-0.317,2.46
		c0.734,3.112,2.49,6.463,3.784,9.145c2.245,4.655,4.409,9.305,6.343,14.102c0.65,1.613,1.902,6.24,3.691,10.403
		c0.268,0.773,0.535,1.545,0.798,2.319c1.101,3.835,1.66,7.781,1.713,11.823c0.03,2.288-0.249,4.854-1.938,6.535
		c-1.934,1.925-5.434,0.707-7.566,3.076c-0.982,1.091-1.404,2.808-0.531,4.118c3.566,5.354,9.158,3.777,13.243,0.102
		c1.709,0.955,4.025,0.815,5.839-0.67c3.672-3.007,3.841-9.562,3.667-13.927c-0.074-1.851-0.302-3.678-0.637-5.484
		c1.29-0.626,2.375-1.775,2.946-3.325c1.801-4.887-0.953-10.52-2.582-15.188C446.56,274.357,445.168,270.994,443.709,267.662z"/>
	<path fill-rule="evenodd" clip-rule="evenodd" fill="#CC6698" d="M427.908,320.548c-0.85-2.39-2.149-3.039-4.005-4.556
		c-1.926-1.575-2.639-4.041-3.186-6.356c-1.06-4.492-1.015-10.974,0.494-15.356c0.202-0.586,0.214-1.138,0.111-1.651
		c0.118-0.499,0.233-0.999,0.339-1.5c0.76-3.608-3.791-5.074-5.533-2.333c-0.016-0.007-0.032-0.014-0.048-0.021
		c-0.289,0.6-0.567,1.199-0.84,1.799c-0.251,0.25-0.479,0.542-0.652,0.914c-1.526,3.266-2.461,6.473-2.704,10.079
		c-0.042,0.627,0.047,1.172,0.231,1.64c-0.328,2.802-0.386,5.658,0.051,8.788c0.747,5.355,6.139,16.078,13.068,13.264
		C427.051,324.519,428.666,322.681,427.908,320.548z"/>
</g>
<path fill-rule="evenodd" clip-rule="evenodd" fill="#CC6698" d="M485.333,424.539c2.766-2.398,5.572-4.755,8.418-7.062
	c0.779-0.678,1.558-1.356,2.332-2.04c0.064,0.007,0.131,0,0.195,0.004c2.67-2.118,5.374-4.193,8.117-6.21
	c7.805-9.034,16.667-17.222,26.213-24.383c0.101-0.243,0.186-0.486,0.238-0.73c1.502-1.461,2.993-2.934,4.473-4.414
	c8.309-8.309,15.966-18.255,20.941-28.926c8.335-17.879,9.173-38.775,1.461-57.003c-6.234-14.734-18.48-27.786-34.422-31.633
	c-1.279-0.309-2.574-0.544-3.876-0.72c-9.939-1.799-20.619-0.142-29.748,4.603c-14.251,7.407-27.438,26.534-22.977,43.23
	c-0.181,10.813,2.636,21.7,7.837,31.374c1.591,2.959,6.239,0.917,5.355-2.257c-3.763-13.504-6.782-26.569-2.525-40.326
	c2.485-8.032,7.287-15.452,14.497-19.948c12.448-7.763,28.744-3.572,39.293,5.461c16.8,14.386,18.741,39.725,10.485,59.196
	c-1.233,2.907-2.695,5.661-4.325,8.301c-0.374,0.043-0.743,0.168-1.085,0.385c-0.504,0.752-1.015,1.495-1.538,2.222
	c-0.672,1.257-1.416,2.457-2.24,3.592c-0.107,0.182-0.224,0.358-0.333,0.54c-0.451,0.796-0.906,1.59-1.35,2.389
	c-3.549,4.396-7.417,8.565-11.251,12.73c-8.833,9.594-18.024,18.859-27.567,27.747c-8.144,7.584-16.559,14.878-25.273,21.8
	c-4.314,3.427-8.708,6.736-13.222,9.896c-3.915,2.741-7.957,5.123-11.075,8.778c-1.046,1.227-0.963,2.693-0.207,3.685
	c-0.054,0.486,0.024,1.006,0.231,1.496c0.107,0.253,0.205,0.51,0.305,0.766c0.016,0.064,0.019,0.132,0.036,0.196
	c0.065,0.24,0.167,0.443,0.292,0.617c0.803,2.04,3.639,1.596,4.123-0.166c0.097-0.036,0.196-0.054,0.29-0.104
	c1.153-0.615,2.289-1.246,3.401-1.906c7.229-2.498,13.935-6.47,20.276-10.686C476.041,431.767,480.75,428.233,485.333,424.539z"/>
<path fill-rule="evenodd" clip-rule="evenodd" fill="#CC6698" d="M302.644,217.057c-1.374-0.646-2.813-1.041-4.293-1.254
	c-0.37-0.697-1.072-1.2-2.119-1.165c-2.335-0.079-4.892,0.983-7.155,1.509c-3.304,0.767-6.625,1.491-9.965,2.087
	c-0.763,0.119-1.242,0.598-1.481,1.201c-1.822,0.361-3.65,0.838-5.539,1.319c-5.549,1.414-11.074,2.926-16.587,4.474
	c-10.963,3.078-21.851,6.42-32.719,9.819c-8.522,2.665-17.08,5.268-25.556,8.093c-0.187,0.036-0.373,0.069-0.566,0.138
	c-6.457,1.234-12.839,3.742-19.006,6.55c-5.103,1.833-10.129,3.927-14.584,6.729c-5.429,2.312-10.837,4.675-16.229,7.076
	c-1.026,0.457-1.058,1.631-0.556,2.449c-1.881,1.312-3.687,2.714-5.378,4.248c-2.335,2.118,0.121,5.82,2.964,5.092
	c9.416-2.409,17.923-7.855,26.609-12.083c4.844-2.358,9.819-4.414,14.795-6.461c1.957-0.478,3.888-0.962,5.78-1.414
	c11.062-2.644,21.968-5.902,32.926-8.944c10.355-2.875,20.735-5.664,31.154-8.3c5.548-1.404,11.114-2.735,16.691-4.016
	c5.357-1.23,11.427-1.738,16.054-4.896c1.842-1.258,2.803-3.717,2.59-5.918c0.074-0.018,0.148-0.036,0.223-0.054
	c1.851-0.284,3.686-0.653,5.488-1.206c0.539-0.1,0.886-0.384,1.07-0.747c0.319,0.053,0.637,0.11,0.95,0.177
	c7.237,1.55,1.98,12.033,0.939,16.396c-0.557,2.33,2.322,3.272,3.641,1.535C307.259,233.598,311.639,221.284,302.644,217.057z"/>
<path fill-rule="evenodd" clip-rule="evenodd" fill="#CC6698" d="M106.76,336.177c-0.034,0.037-0.074,0.075-0.109,0.112
	c-0.948-0.845-2.61-0.992-3.53,0.39c-0.428,0.563-0.842,1.136-1.249,1.714c-0.851,1.093-1.767,2.132-2.707,3.15
	c0.514-1.599,1.051-3.191,1.697-4.749c0.255-0.613-0.13-1.132-0.654-1.352c0.986-3.4,2.376-6.756,4.054-10.148
	c0.327-0.661,0.365-1.35,0.216-1.988c0.039-0.07,0.075-0.139,0.114-0.208c1.411-2.531-1.901-5.099-3.988-3.077
	c-9.955,9.644-11.611,25.023-8.387,37.914c0.631,2.524,4.115,2.854,5.399,0.706c0.053-0.089,0.108-0.177,0.161-0.266
	c0.446-0.218,0.862-0.555,1.205-1.049c2.285-3.302,4.268-6.775,6.22-10.272c0.718-1.13,1.381-2.298,1.993-3.5
	c1.048-1.534,2.113-3.059,3.205-4.567C111.963,336.829,108.538,334.288,106.76,336.177z"/>
</svg>
